<svg width="48" height="48" viewBox="0 0 48 48" fill="none" xmlns="http://www.w3.org/2000/svg">
<path d="M47.4135 44.5856L33.7636 30.9357C36.4076 27.6698 37.9996 23.5198 37.9996 18.9998C37.9996 8.52395 29.4756 0 18.9998 0C8.52385 0 0 8.52385 0 18.9998C0 29.4756 8.52395 37.9996 18.9998 37.9996C23.5198 37.9996 27.6698 36.4076 30.9357 33.7636L44.5856 47.4135C44.9756 47.8035 45.4875 47.9995 45.9996 47.9995C46.5116 47.9995 47.0236 47.8035 47.4136 47.4135C48.1956 46.6315 48.1956 45.3675 47.4135 44.5856ZM18.9998 33.9996C10.7279 33.9996 3.99999 27.2717 3.99999 18.9998C3.99999 10.7278 10.7279 3.9999 18.9998 3.9999C27.2718 3.9999 33.9997 10.7278 33.9997 18.9998C33.9997 27.2717 27.2717 33.9996 18.9998 33.9996Z" fill="black"/>
</svg>
