<svg width="214" height="48" viewBox="0 0 214 48" fill="none" xmlns="http://www.w3.org/2000/svg">
<path fill-rule="evenodd" clip-rule="evenodd" d="M46.874 44.404C56.5 43.7909 73.5467 41.17 73.1478 24.7834C72.7508 8.4752 44.468 5.90807 35.7882 15.4106C30.1025 21.6353 29.6215 30.342 22.8495 30.2821C17.1122 30.2316 16.9462 19.2794 22.4046 18.334C17.2836 13.9985 13.7201 14.5862 12.2751 18.7192C8.59383 15.0298 2.98723 16.2602 0 21.1615C8.66694 15.3253 9.54028 28.206 14.3281 33.5355C24.7771 45.165 40.4761 44.8117 46.874 44.404Z" fill="url(#paint0_linear)"/>
<path fill-rule="evenodd" clip-rule="evenodd" d="M63.5188 40.6362C50.5473 36.2848 29.2738 49.5121 14.3284 33.5353C24.7771 45.1652 40.4645 44.6228 46.8743 44.4042C52.6102 44.2087 58.4904 43.3474 63.5188 40.6362Z" fill="url(#paint1_linear)"/>
<path fill-rule="evenodd" clip-rule="evenodd" d="M32.738 46.1399C41.1806 51.7862 49.1628 43.3132 44.6022 37.5503C44.1222 39.9985 39.8061 45.3219 32.8782 45.4318C32.3208 45.4405 32.2933 45.8424 32.738 46.1399Z" fill="url(#paint2_linear)"/>
<path fill-rule="evenodd" clip-rule="evenodd" d="M51.5182 12.747C50.8093 9.52026 46.8485 7.77494 42.7762 7.21761C34.663 6.10706 39.0347 -3.39462 46.8753 1.28929C51.5215 4.06509 52.1788 9.15816 51.5182 12.747Z" fill="url(#paint3_linear)"/>
<path fill-rule="evenodd" clip-rule="evenodd" d="M52.2162 9.44263C52.5827 7.86535 54.5332 7.02863 56.5313 6.77466C60.5123 6.26878 58.4275 1.59392 54.559 3.85156C52.2665 5.18949 51.9138 7.68152 52.2162 9.44263Z" fill="url(#paint4_linear)"/>
<path d="M93.8216 40V14.8H97.6016V25.6H110.994V14.8H114.774V40H110.994V29.02H97.6016V40H93.8216ZM124.92 40.324C122.928 40.324 121.308 39.808 120.06 38.776C118.812 37.744 118.188 36.4 118.188 34.744C118.188 33.016 118.848 31.66 120.168 30.676C121.488 29.668 123.3 29.164 125.604 29.164C126.492 29.164 127.356 29.26 128.196 29.452C129.036 29.62 129.84 29.86 130.608 30.172V28.228C130.608 26.932 130.224 25.96 129.456 25.312C128.688 24.664 127.584 24.34 126.144 24.34C125.304 24.34 124.428 24.472 123.516 24.736C122.604 24.976 121.584 25.36 120.456 25.888L119.124 23.188C120.492 22.54 121.788 22.072 123.012 21.784C124.236 21.472 125.448 21.316 126.648 21.316C129.024 21.316 130.86 21.892 132.156 23.044C133.476 24.172 134.136 25.78 134.136 27.868V40H130.608V38.416C129.792 39.064 128.916 39.544 127.98 39.856C127.044 40.168 126.024 40.324 124.92 40.324ZM121.644 34.672C121.644 35.56 122.016 36.28 122.76 36.832C123.528 37.384 124.524 37.66 125.748 37.66C126.708 37.66 127.596 37.516 128.412 37.228C129.228 36.94 129.96 36.508 130.608 35.932V32.764C129.912 32.38 129.18 32.104 128.412 31.936C127.644 31.744 126.804 31.648 125.892 31.648C124.596 31.648 123.564 31.924 122.796 32.476C122.028 33.028 121.644 33.76 121.644 34.672ZM138.284 47.452V21.676H141.848V23.44C142.592 22.768 143.444 22.264 144.404 21.928C145.364 21.568 146.384 21.388 147.464 21.388C148.76 21.388 149.972 21.64 151.1 22.144C152.228 22.624 153.2 23.284 154.016 24.124C154.856 24.964 155.516 25.96 155.996 27.112C156.476 28.264 156.716 29.5 156.716 30.82C156.716 32.14 156.476 33.388 155.996 34.564C155.516 35.716 154.856 36.712 154.016 37.552C153.2 38.392 152.216 39.064 151.064 39.568C149.912 40.048 148.688 40.288 147.392 40.288C146.384 40.288 145.4 40.132 144.44 39.82C143.504 39.508 142.652 39.064 141.884 38.488V47.452H138.284ZM146.996 24.52C145.964 24.52 145.004 24.712 144.116 25.096C143.228 25.48 142.484 26.02 141.884 26.716V34.996C142.46 35.668 143.192 36.196 144.08 36.58C144.992 36.964 145.964 37.156 146.996 37.156C148.748 37.156 150.212 36.556 151.388 35.356C152.588 34.156 153.188 32.656 153.188 30.856C153.188 29.056 152.588 27.556 151.388 26.356C150.188 25.132 148.724 24.52 146.996 24.52ZM160.151 47.452V21.676H163.715V23.44C164.459 22.768 165.311 22.264 166.271 21.928C167.231 21.568 168.251 21.388 169.331 21.388C170.627 21.388 171.839 21.64 172.967 22.144C174.095 22.624 175.067 23.284 175.883 24.124C176.723 24.964 177.383 25.96 177.863 27.112C178.343 28.264 178.583 29.5 178.583 30.82C178.583 32.14 178.343 33.388 177.863 34.564C177.383 35.716 176.723 36.712 175.883 37.552C175.067 38.392 174.083 39.064 172.931 39.568C171.779 40.048 170.555 40.288 169.259 40.288C168.251 40.288 167.267 40.132 166.307 39.82C165.371 39.508 164.519 39.064 163.751 38.488V47.452H160.151ZM168.863 24.52C167.831 24.52 166.871 24.712 165.983 25.096C165.095 25.48 164.351 26.02 163.751 26.716V34.996C164.327 35.668 165.059 36.196 165.947 36.58C166.859 36.964 167.831 37.156 168.863 37.156C170.615 37.156 172.079 36.556 173.255 35.356C174.455 34.156 175.055 32.656 175.055 30.856C175.055 29.056 174.455 27.556 173.255 26.356C172.055 25.132 170.591 24.52 168.863 24.52ZM185.887 41.728L186.607 40.072L179.299 21.676H183.259L188.623 35.68L194.527 21.676H198.415L189.559 42.196C188.719 44.14 187.759 45.532 186.679 46.372C185.599 47.236 184.219 47.668 182.539 47.668C182.155 47.668 181.795 47.644 181.459 47.596C181.147 47.572 180.871 47.524 180.631 47.452V44.284C180.871 44.332 181.111 44.368 181.351 44.392C181.615 44.416 181.915 44.428 182.251 44.428C183.067 44.428 183.775 44.2 184.375 43.744C184.999 43.312 185.503 42.64 185.887 41.728Z" fill="#011D4B"/>
<defs>
<linearGradient id="paint0_linear" x1="36.5773" y1="44.5493" x2="36.5773" y2="9.89755" gradientUnits="userSpaceOnUse">
<stop stop-color="#00C6FB"/>
<stop offset="1" stop-color="#2575FC"/>
</linearGradient>
<linearGradient id="paint1_linear" x1="38.9236" y1="44.4828" x2="38.9236" y2="33.5353" gradientUnits="userSpaceOnUse">
<stop stop-color="#00C6FB"/>
<stop offset="1" stop-color="#2575FC"/>
</linearGradient>
<linearGradient id="paint2_linear" x1="39.1799" y1="48" x2="39.1799" y2="37.5503" gradientUnits="userSpaceOnUse">
<stop stop-color="#00C6FB"/>
<stop offset="1" stop-color="#2575FC"/>
</linearGradient>
<linearGradient id="paint3_linear" x1="45.0879" y1="12.747" x2="45.0879" y2="1.14441e-05" gradientUnits="userSpaceOnUse">
<stop stop-color="#00C6FB"/>
<stop offset="1" stop-color="#2575FC"/>
</linearGradient>
<linearGradient id="paint4_linear" x1="55.4002" y1="9.44263" x2="55.4002" y2="3.23926" gradientUnits="userSpaceOnUse">
<stop stop-color="#00C6FB"/>
<stop offset="1" stop-color="#2575FC"/>
</linearGradient>
</defs>
</svg>
